HIERARCHY
ROOT Hips
{
	OFFSET -0.000008 104.274872 1.554316
	CHANNELS 6 Xposition Yposition Zposition Xrotation Yrotation Zrotation
	JOINT Spine
	{
		OFFSET -0.000005 10.181595 0.131521
		CHANNELS 6 Xposition Yposition Zposition Xrotation Yrotation Zrotation
		JOINT Spine1
		{
			OFFSET -0.000000 9.893959 -1.470711
			CHANNELS 6 Xposition Yposition Zposition Xrotation Yrotation Zrotation
			JOINT Spine2
			{
				OFFSET -0.000000 9.220757 -1.370642
				CHANNELS 3 Xrotation Yrotation Zrotation
				JOINT Neck
				{
					OFFSET 0.000001 16.740417 -2.049038
					CHANNELS 6 Xposition Yposition Zposition Xrotation Yrotation Zrotation
					JOINT Head
					{
						OFFSET 0.000000 9.617874 1.685009
						CHANNELS 6 Xposition Yposition Zposition Xrotation Yrotation Zrotation
						JOINT HeadTop_End
						{
							OFFSET 0.000002 22.037384 7.501098
							CHANNELS 6 Xposition Yposition Zposition Xrotation Yrotation Zrotation
							End Site
							{
								OFFSET 0.000002 23.106583 -2.828261
							}
						}
					}
				}
				JOINT RightShoulder
				{
					OFFSET -4.569969 11.014923 -2.160886
					CHANNELS 6 Xposition Yposition Zposition Xrotation Yrotation Zrotation
					JOINT RightArm
					{
						OFFSET -10.592850 -0.524811 -2.232100
						CHANNELS 3 Xrotation Yrotation Zrotation
						JOINT RightForeArm
						{
							OFFSET -27.841520 0.000015 -0.000005
							CHANNELS 6 Xposition Yposition Zposition Xrotation Yrotation Zrotation
							JOINT RightHand
							{
								OFFSET -28.328838 -0.000015 0.000018
								CHANNELS 6 Xposition Yposition Zposition Xrotation Yrotation Zrotation
								JOINT RightHandThumb1
								{
									OFFSET -2.464806 -1.573990 2.681853
									CHANNELS 6 Xposition Yposition Zposition Xrotation Yrotation Zrotation
									JOINT RightHandThumb2
									{
										OFFSET -3.215195 -1.872772 1.924282
										CHANNELS 6 Xposition Yposition Zposition Xrotation Yrotation Zrotation
										JOINT RightHandThumb3
										{
											OFFSET -2.654823 -1.527985 1.512609
											CHANNELS 6 Xposition Yposition Zposition Xrotation Yrotation Zrotation
											JOINT RightHandThumb4
											{
												OFFSET -2.018822 -1.152008 1.108055
												CHANNELS 3 Xrotation Yrotation Zrotation
												End Site
												{
													OFFSET -1.888100 -1.145340 1.324313
												}
											}
										}
									}
								}
								JOINT RightHandIndex1
								{
									OFFSET -9.108284 -0.517868 2.259835
									CHANNELS 6 Xposition Yposition Zposition Xrotation Yrotation Zrotation
									JOINT RightHandIndex2
									{
										OFFSET -3.699997 0.000000 0.001215
										CHANNELS 3 Xrotation Yrotation Zrotation
										JOINT RightHandIndex3
										{
											OFFSET -2.850014 0.000031 -0.000522
											CHANNELS 3 Xrotation Yrotation Zrotation
											JOINT RightHandIndex4
											{
												OFFSET -2.772179 -0.000015 -0.000019
												CHANNELS 3 Xrotation Yrotation Zrotation
												End Site
												{
													OFFSET -2.772186 0.000000 -0.000502
												}
											}
										}
									}
								}
								JOINT RightHandMiddle1
								{
									OFFSET -9.532509 -0.000046 -0.000025
									CHANNELS 6 Xposition Yposition Zposition Xrotation Yrotation Zrotation
									JOINT RightHandMiddle2
									{
										OFFSET -3.700012 0.000000 0.003713
										CHANNELS 3 Xrotation Yrotation Zrotation
										JOINT RightHandMiddle3
										{
											OFFSET -2.949989 0.000015 -0.002054
											CHANNELS 3 Xrotation Yrotation Zrotation
											JOINT RightHandMiddle4
											{
												OFFSET -2.946625 0.000000 -0.000154
												CHANNELS 3 Xrotation Yrotation Zrotation
												End Site
												{
													OFFSET -2.946632 0.000015 -0.001136
												}
											}
										}
									}
								}
								JOINT RightHandRing1
								{
									OFFSET -9.103600 -0.043076 -1.865135
									CHANNELS 6 Xposition Yposition Zposition Xrotation Yrotation Zrotation
									JOINT RightHandRing2
									{
										OFFSET -3.379272 0.000000 -0.001054
										CHANNELS 3 Xrotation Yrotation Zrotation
										JOINT RightHandRing3
										{
											OFFSET -2.889694 0.000015 0.000379
											CHANNELS 3 Xrotation Yrotation Zrotation
											JOINT RightHandRing4
											{
												OFFSET -2.638809 0.000000 0.000941
												CHANNELS 3 Xrotation Yrotation Zrotation
												End Site
												{
													OFFSET -2.638802 0.000000 0.005160
												}
											}
										}
									}
								}
								JOINT RightHandPinky1
								{
									OFFSET -8.076675 -0.486710 -3.806280
									CHANNELS 6 Xposition Yposition Zposition Xrotation Yrotation Zrotation
									JOINT RightHandPinky2
									{
										OFFSET -3.600006 -0.000031 -0.003747
										CHANNELS 3 Xrotation Yrotation Zrotation
										JOINT RightHandPinky3
										{
											OFFSET -2.099976 -0.000015 -0.005740
											CHANNELS 3 Xrotation Yrotation Zrotation
											JOINT RightHandPinky4
											{
												OFFSET -2.115776 -0.000031 -0.003680
												CHANNELS 3 Xrotation Yrotation Zrotation
												End Site
												{
													OFFSET -2.115776 -0.000015 -0.003507
												}
											}
										}
									}
								}
							}
						}
					}
				}
				JOINT LeftShoulder
				{
					OFFSET 4.570447 11.014725 -2.160858
					CHANNELS 6 Xposition Yposition Zposition Xrotation Yrotation Zrotation
					JOINT LeftArm
					{
						OFFSET 10.592371 -0.524597 -2.232121
						CHANNELS 3 Xrotation Yrotation Zrotation
						JOINT LeftForeArm
						{
							OFFSET 27.841520 -0.000015 0.000023
							CHANNELS 3 Xrotation Yrotation Zrotation
							JOINT LeftHand
							{
								OFFSET 28.328835 -0.000046 0.000017
								CHANNELS 6 Xposition Yposition Zposition Xrotation Yrotation Zrotation
								JOINT LeftHandThumb1
								{
									OFFSET 2.466141 -1.576187 2.681734
									CHANNELS 6 Xposition Yposition Zposition Xrotation Yrotation Zrotation
									JOINT LeftHandThumb2
									{
										OFFSET 3.217804 -1.872055 1.916487
										CHANNELS 6 Xposition Yposition Zposition Xrotation Yrotation Zrotation
										JOINT LeftHandThumb3
										{
											OFFSET 2.656021 -1.528809 1.514508
											CHANNELS 6 Xposition Yposition Zposition Xrotation Yrotation Zrotation
											JOINT LeftHandThumb4
											{
												OFFSET 2.020889 -1.154068 1.115132
												CHANNELS 6 Xposition Yposition Zposition Xrotation Yrotation Zrotation
												End Site
												{
													OFFSET 1.908852 -1.150833 1.300490
												}
											}
										}
									}
								}
								JOINT LeftHandIndex1
								{
									OFFSET 9.109306 -0.518036 2.259871
									CHANNELS 6 Xposition Yposition Zposition Xrotation Yrotation Zrotation
									JOINT LeftHandIndex2
									{
										OFFSET 3.699997 -0.000015 -0.000323
										CHANNELS 3 Xrotation Yrotation Zrotation
										JOINT LeftHandIndex3
										{
											OFFSET 2.850006 -0.000015 0.000350
											CHANNELS 3 Xrotation Yrotation Zrotation
											JOINT LeftHandIndex4
											{
												OFFSET 2.774857 -0.000015 -0.000027
												CHANNELS 3 Xrotation Yrotation Zrotation
												End Site
												{
													OFFSET 2.774864 0.000000 -0.000099
												}
											}
										}
									}
								}
								JOINT LeftHandMiddle1
								{
									OFFSET 9.533401 0.000031 0.000044
									CHANNELS 6 Xposition Yposition Zposition Xrotation Yrotation Zrotation
									JOINT LeftHandMiddle2
									{
										OFFSET 3.699997 0.000000 -0.000231
										CHANNELS 3 Xrotation Yrotation Zrotation
										JOINT LeftHandMiddle3
										{
											OFFSET 2.949997 -0.000015 -0.000059
											CHANNELS 3 Xrotation Yrotation Zrotation
											JOINT LeftHandMiddle4
											{
												OFFSET 2.952866 0.000000 0.000062
												CHANNELS 3 Xrotation Yrotation Zrotation
												End Site
												{
													OFFSET 2.952858 0.000000 0.000228
												}
											}
										}
									}
								}
								JOINT LeftHandRing1
								{
									OFFSET 9.104530 -0.043030 -1.865075
									CHANNELS 6 Xposition Yposition Zposition Xrotation Yrotation Zrotation
									JOINT LeftHandRing2
									{
										OFFSET 3.150009 0.000000 0.000042
										CHANNELS 3 Xrotation Yrotation Zrotation
										JOINT LeftHandRing3
										{
											OFFSET 2.949989 -0.000015 0.000040
											CHANNELS 3 Xrotation Yrotation Zrotation
											JOINT LeftHandRing4
											{
												OFFSET 2.644318 -0.000015 0.000056
												CHANNELS 6 Xposition Yposition Zposition Xrotation Yrotation Zrotation
												End Site
												{
													OFFSET 2.644318 0.000000 0.000120
												}
											}
										}
									}
								}
								JOINT LeftHandPinky1
								{
									OFFSET 8.077782 -0.486877 -3.806258
									CHANNELS 6 Xposition Yposition Zposition Xrotation Yrotation Zrotation
									JOINT LeftHandPinky2
									{
										OFFSET 3.599960 0.000031 0.014726
										CHANNELS 3 Xrotation Yrotation Zrotation
										JOINT LeftHandPinky3
										{
											OFFSET 2.099998 0.000031 0.007705
											CHANNELS 3 Xrotation Yrotation Zrotation
											JOINT LeftHandPinky4
											{
												OFFSET 2.125504 0.000000 0.007515
												CHANNELS 3 Xrotation Yrotation Zrotation
												End Site
												{
													OFFSET 2.125511 0.000015 0.006257
												}
											}
										}
									}
								}
							}
						}
					}
				}
			}
		}
	}
	JOINT RightUpLeg
	{
		OFFSET -8.207787 -6.751663 -1.599560
		CHANNELS 6 Xposition Yposition Zposition Xrotation Yrotation Zrotation
		JOINT RightLeg
		{
			OFFSET -0.000001 -44.370129 0.345939
			CHANNELS 3 Xrotation Yrotation Zrotation
			JOINT RightFoot
			{
				OFFSET 0.000001 -44.423679 -3.043537
				CHANNELS 3 Xrotation Yrotation Zrotation
				JOINT RightToeBase
				{
					OFFSET -0.000003 -8.728673 10.710563
					CHANNELS 6 Xposition Yposition Zposition Xrotation Yrotation Zrotation
					JOINT RightToe_End
					{
						OFFSET -0.000002 -0.000676 9.278122
						CHANNELS 6 Xposition Yposition Zposition Xrotation Yrotation Zrotation
						End Site
						{
							OFFSET -0.000003 -0.000676 9.278122
						}
					}
				}
			}
		}
	}
	JOINT LeftUpLeg
	{
		OFFSET 8.207791 -6.751694 -1.599555
		CHANNELS 6 Xposition Yposition Zposition Xrotation Yrotation Zrotation
		JOINT LeftLeg
		{
			OFFSET -0.000002 -44.370033 0.346957
			CHANNELS 3 Xrotation Yrotation Zrotation
			JOINT LeftFoot
			{
				OFFSET 0.000000 -44.423672 -3.044393
				CHANNELS 3 Xrotation Yrotation Zrotation
				JOINT LeftToeBase
				{
					OFFSET -0.000003 -8.728668 10.710562
					CHANNELS 6 Xposition Yposition Zposition Xrotation Yrotation Zrotation
					JOINT LeftToe_End
					{
						OFFSET -0.000003 -0.000676 9.278135
						CHANNELS 6 Xposition Yposition Zposition Xrotation Yrotation Zrotation
						End Site
						{
							OFFSET -0.000003 -0.000677 9.278135
						}
					}
				}
			}
		}
	}
}
MOTION
Frames: 4
Frame Time: 0.033333
8.532365 95.578941 1.372558 -25.083315 -43.558725 -24.417180 -0.000003 10.181574 0.131518 2.731831 2.188499 -2.930926 -0.000002 9.893935 -1.470717 6.145407 0.940449 0.793914 6.159037 0.859986 0.784870 0.000002 16.740421 -2.049032 -1.778748 0.428072 3.268839 -0.000000 9.617899 1.685007 3.084875 6.217663 3.807246 0.000003 22.037323 7.501102 0.000000 0.000002 0.000000 -4.569965 11.014911 -2.160884 -0.006609 -4.839729 1.946322 -21.398127 65.749634 26.543454 -27.841513 0.000015 0.000003 -0.000004 12.494784 0.000000 -28.328831 0.000016 0.000027 16.181070 19.378239 -40.162233 -2.464805 -1.573974 2.681849 -1.619268 -4.333939 -6.744824 -3.215197 -1.872767 1.924283 4.223210 -7.640265 -0.059987 -2.654844 -1.527957 1.512614 -1.560133 0.883050 -1.926121 0.000004 0.000000 0.000002 -9.108282 -0.517862 2.259829 -0.000006 -0.018781 0.000101 0.000002 0.029294 0.000023 0.000002 -0.010102 0.000001 -0.000001 -0.000002 -0.000001 -9.532524 0.000004 -0.000034 -0.000006 -0.057481 0.000099 -0.000001 0.097398 0.000001 -0.000003 -0.036899 0.000002 -0.000001 0.000003 -0.000000 -9.103599 -0.043065 -1.865142 -0.000007 0.017920 0.000000 0.000010 -0.025392 0.000013 -0.000001 -0.012897 -0.000002 0.000000 0.000005 0.000001 -8.076691 -0.486689 -3.806286 -0.000003 0.059616 -0.000493 -0.000002 0.097004 -0.000002 -0.000000 -0.056901 0.000002 -0.000001 0.000003 0.000004 4.570449 11.014723 -2.160854 -0.737829 9.775596 -6.960044 227.945693 -106.730442 154.185332 -0.000001 -0.342367 0.000004 28.328842 -0.000044 0.000021 -23.740734 -12.123874 4.188167 2.466141 -1.576192 2.681729 -1.336449 4.338055 6.279182 3.217798 -1.872043 1.916494 3.576449 7.070878 0.589262 2.656019 -1.528808 1.514508 -0.821919 0.916467 2.391511 2.020904 -1.154080 1.115137 -0.000002 -0.000004 -0.000003 9.109291 -0.518058 2.259871 0.000001 -0.005098 0.000105 0.000002 0.012000 0.000002 -0.000011 -0.007588 -0.000003 -0.000000 0.000000 0.000001 9.533394 0.000019 0.000046 0.000001 -0.005525 0.015982 0.000002 0.004329 -0.015979 -0.000006 0.002401 0.000006 -0.000000 -0.000002 -0.000003 9.104532 -0.043038 -1.865075 0.000000 0.000700 0.000103 -0.000002 0.000001 -0.000004 0.000001 0.000001 0.000002 2.644308 0.000014 0.000051 -0.000000 -0.000001 0.000001 8.077770 -0.486876 -3.806257 -0.020167 4.288535 0.510609 -0.016155 -4.078346 -0.510895 0.000003 -0.007701 0.000002 -0.000000 -0.000000 -0.000001 -8.207786 -6.751677 -1.599568 -12.227651 -4.833073 -1.797988 37.942124 8.812578 -4.728347 -8.102459 0.170543 8.830279 -0.000003 -8.728669 10.710563 -0.207260 -0.000015 -0.000000 -0.000003 -0.000676 9.278120 -0.000000 -0.000003 -0.000000 8.207792 -6.751712 -1.599561 6.210674 15.902193 4.495632 40.893541 10.361775 10.130089 -27.990727 23.762841 -10.129430 -0.000002 -8.728669 10.710559 -2.235040 0.000001 -0.000003 -0.000003 -0.000677 9.278141 0.000003 -0.000000 -0.000000
10.800859 94.658913 0.414529 -24.158475 -44.961885 -22.381347 -0.000003 10.181610 0.131525 3.299508 2.348769 -2.979233 0.000002 9.893963 -1.470713 6.976113 1.488393 0.381173 6.995089 1.394737 0.394716 0.000004 16.740416 -2.049036 -2.873915 0.619786 2.410826 0.000002 9.617906 1.685008 2.507072 6.141606 3.133386 0.000000 22.037338 7.501100 -0.000000 0.000001 0.000000 -4.569967 11.014927 -2.160887 -0.038024 -4.594712 1.162274 -21.043806 66.137036 25.088101 -27.841511 0.000025 0.000004 -0.000001 12.662454 0.000007 -28.328831 -0.000015 0.000026 12.850569 19.035389 -36.782119 -2.464811 -1.573985 2.681850 -1.619251 -4.333936 -6.744814 -3.215205 -1.872771 1.924282 4.223208 -7.640269 -0.059990 -2.654846 -1.527970 1.512611 -1.560135 0.883048 -1.926117 -0.000000 -0.000002 -0.000006 -9.108282 -0.517873 2.259833 0.000000 -0.018781 0.000101 0.000002 0.029293 0.000020 0.000001 -0.010102 -0.000000 -0.000000 -0.000002 0.000001 -9.532509 -0.000010 -0.000026 -0.000001 -0.057481 0.000099 0.000001 0.097397 -0.000001 -0.000001 -0.036900 -0.000000 -0.000002 0.000001 0.000003 -9.103594 -0.043098 -1.865134 0.000000 0.017920 0.000001 0.000010 -0.025388 0.000017 0.000003 -0.012899 -0.000003 -0.000001 0.000000 0.000001 -8.076681 -0.486714 -3.806280 -0.000007 0.059626 -0.000500 -0.000000 0.096998 0.000001 -0.000001 -0.056898 0.000003 0.000002 -0.000002 0.000002 4.570450 11.014763 -2.160856 -0.780831 10.115171 -7.262521 224.293973 -106.243825 153.737709 0.000005 -1.339629 -0.000002 28.328833 -0.000053 0.000022 -26.330369 -8.118485 5.572769 2.466135 -1.576219 2.681731 -1.336450 4.338050 6.279180 3.217795 -1.872027 1.916494 3.576450 7.070879 0.589264 2.656018 -1.528810 1.514504 -0.821920 0.916467 2.391512 2.020877 -1.154065 1.115132 -0.000004 -0.000006 -0.000005 9.109300 -0.518056 2.259871 0.000001 -0.005100 0.000107 0.000002 0.012004 0.000000 -0.000011 -0.007591 -0.000002 -0.000000 0.000000 -0.000000 9.533404 0.000008 0.000044 0.000000 -0.005526 0.015987 0.000003 0.004328 -0.015975 -0.000005 0.002399 0.000007 -0.000000 -0.000000 0.000000 9.104529 -0.043050 -1.865071 -0.000000 0.000697 0.000107 -0.000001 0.000003 -0.000003 0.000000 0.000004 0.000003 2.644308 0.000015 0.000059 -0.000002 -0.000005 0.000001 8.077786 -0.486877 -3.806260 -0.020167 4.288536 0.510614 -0.016155 -4.078347 -0.510898 0.000002 -0.007701 0.000003 -0.000001 0.000001 0.000001 -8.207786 -6.751640 -1.599563 -16.334186 -3.505076 -3.479390 39.796370 8.925073 -5.298859 -7.178637 0.360850 9.790110 -0.000003 -8.728671 10.710564 -0.210616 0.000011 -0.000004 -0.000003 -0.000676 9.278118 -0.000000 -0.000001 -0.000000 8.207793 -6.751667 -1.599554 2.682324 14.749071 2.422957 44.658690 10.371509 9.118917 -29.531621 23.689820 -8.273685 -0.000000 -8.728669 10.710560 -2.344689 -0.000001 0.000003 -0.000003 -0.000677 9.278141 0.000003 -0.000000 -0.000000
12.993088 93.864807 -0.623293 -23.040149 -46.449289 -20.320409 -0.000006 10.181588 0.131522 3.784516 2.659560 -3.284446 -0.000001 9.893953 -1.470718 7.633867 2.301688 -0.439711 7.661138 2.207522 -0.400137 0.000005 16.740410 -2.049036 -3.469505 0.719424 2.092799 0.000002 9.617893 1.685008 2.569984 6.189978 3.377000 -0.000001 22.037369 7.501097 0.000000 -0.000001 0.000000 -4.569968 11.014945 -2.160886 -0.039605 -4.329355 0.749779 -21.615597 66.387936 25.567498 -27.841515 0.000011 0.000002 -0.000004 12.142690 0.000006 -28.328840 0.000032 0.000020 9.565759 17.996201 -31.489641 -2.464820 -1.573949 2.681852 -1.619253 -4.333932 -6.744810 -3.215197 -1.872765 1.924280 4.223208 -7.640274 -0.059986 -2.654848 -1.527986 1.512611 -1.560138 0.883055 -1.926116 0.000002 -0.000001 -0.000001 -9.108287 -0.517837 2.259836 -0.000000 -0.018780 0.000102 -0.000000 0.029292 0.000017 -0.000000 -0.010100 0.000002 -0.000001 0.000002 -0.000001 -9.532520 0.000016 -0.000018 0.000001 -0.057485 0.000101 -0.000000 0.097401 0.000000 -0.000001 -0.036897 -0.000000 -0.000000 0.000002 -0.000002 -9.103610 -0.043044 -1.865127 -0.000001 0.017916 0.000002 0.000009 -0.025388 0.000014 -0.000002 -0.012898 -0.000000 0.000001 0.000003 0.000001 -8.076694 -0.486698 -3.806281 0.000001 0.059617 -0.000492 0.000000 0.096997 0.000000 0.000002 -0.056894 0.000001 -0.000000 0.000003 -0.000002 4.570450 11.014736 -2.160854 -0.750972 9.928543 -7.092033 226.421741 -105.121754 158.624313 -0.000006 -3.078044 0.000010 28.328821 -0.000048 0.000005 -29.082532 -2.448274 6.378432 2.466124 -1.576218 2.681729 -1.336448 4.338048 6.279179 3.217815 -1.872053 1.916491 3.576452 7.070881 0.589262 2.656018 -1.528821 1.514504 -0.821919 0.916464 2.391512 2.020897 -1.154045 1.115139 -0.000001 -0.000002 -0.000006 9.109295 -0.518057 2.259868 0.000001 -0.005100 0.000106 0.000000 0.012000 0.000002 -0.000010 -0.007591 -0.000004 -0.000000 -0.000001 0.000001 9.533397 0.000036 0.000041 0.000000 -0.005525 0.015987 0.000004 0.004329 -0.015971 -0.000006 0.002399 0.000004 -0.000001 -0.000001 0.000003 9.104511 -0.043052 -1.865076 -0.000001 0.000698 0.000105 -0.000001 0.000001 -0.000002 0.000001 0.000000 0.000004 2.644321 0.000017 0.000057 0.000001 -0.000002 0.000002 8.077774 -0.486880 -3.806259 -0.020166 4.288534 0.510613 -0.016155 -4.078347 -0.510898 0.000002 -0.007700 0.000002 0.000001 0.000000 0.000000 -8.207789 -6.751672 -1.599568 -20.130734 -2.080150 -4.738845 40.739698 9.007263 -5.786336 -5.703405 0.579243 10.646137 -0.000005 -8.728668 10.710562 -0.134723 -0.000006 -0.000004 -0.000003 -0.000676 9.278123 -0.000000 -0.000005 -0.000000 8.207788 -6.751706 -1.599555 -0.834328 13.658186 0.923791 47.892197 10.355939 7.385835 -30.763739 22.781437 -6.361236 -0.000002 -8.728669 10.710562 -2.702777 -0.000000 0.000002 -0.000001 -0.000677 9.278141 0.000003 0.000001 -0.000000
15.080727 93.126945 -1.557619 -20.572963 -48.533931 -16.945703 -0.000006 10.181578 0.131520 3.904931 3.000871 -3.717413 -0.000005 9.893953 -1.470712 7.594994 3.251016 -1.663486 7.632048 3.180750 -1.595754 0.000002 16.740412 -2.049033 -3.801362 0.716297 1.999297 0.000004 9.617867 1.685010 2.796223 5.991072 4.043185 0.000001 22.037354 7.501102 0.000000 0.000003 -0.000000 -4.569971 11.014913 -2.160885 -0.038683 -4.206166 0.553741 -22.045212 66.479078 26.603969 -27.841518 0.000018 0.000003 -0.000005 11.714183 -0.000001 -28.328835 -0.000005 0.000025 6.921049 16.593528 -27.111666 -2.464806 -1.573994 2.681853 -1.619256 -4.333954 -6.744809 -3.215204 -1.872771 1.924281 4.223210 -7.640268 -0.059987 -2.654848 -1.527991 1.512611 -1.560135 0.883051 -1.926120 0.000000 -0.000002 0.000001 -9.108273 -0.517852 2.259834 -0.000002 -0.018783 0.000100 0.000000 0.029294 0.000019 -0.000001 -0.010091 0.000001 -0.000000 -0.000002 0.000001 -9.532495 -0.000019 -0.000025 -0.000001 -0.057484 0.000100 0.000001 0.097397 -0.000002 -0.000003 -0.036895 -0.000001 -0.000000 -0.000002 -0.000000 -9.103601 -0.043059 -1.865134 -0.000001 0.017917 -0.000002 0.000009 -0.025391 0.000014 0.000001 -0.012901 -0.000002 -0.000000 -0.000000 0.000001 -8.076682 -0.486704 -3.806280 -0.000004 0.059619 -0.000499 -0.000002 0.097002 -0.000002 -0.000000 -0.056903 -0.000001 0.000000 0.000000 -0.000001 4.570450 11.014724 -2.160855 -0.669226 9.334132 -6.563005 229.115103 -104.924089 163.297228 -0.000012 -4.690961 -0.000012 28.328835 -0.000060 0.000014 -31.327919 1.647555 7.313609 2.466140 -1.576206 2.681730 -1.336451 4.338051 6.279182 3.217797 -1.872047 1.916489 3.576451 7.070881 0.589263 2.656021 -1.528806 1.514507 -0.821918 0.916471 2.391510 2.020900 -1.154078 1.115137 -0.000002 -0.000002 -0.000005 9.109282 -0.518039 2.259872 0.000000 -0.005099 0.000105 0.000000 0.012001 0.000005 -0.000011 -0.007591 -0.000002 0.000001 -0.000000 0.000001 9.533407 0.000019 0.000044 0.000000 -0.005523 0.015983 0.000003 0.004328 -0.015977 -0.000006 0.002402 0.000004 -0.000001 0.000001 0.000001 9.104531 -0.043053 -1.865075 -0.000000 0.000702 0.000106 -0.000001 0.000004 -0.000002 0.000002 0.000001 0.000004 2.644309 -0.000001 0.000054 0.000001 -0.000000 0.000000 8.077771 -0.486867 -3.806257 -0.020166 4.288535 0.510611 -0.016154 -4.078347 -0.510896 0.000002 -0.007701 0.000006 -0.000000 -0.000000 0.000001 -8.207788 -6.751665 -1.599569 -24.779009 -0.621685 -6.081832 41.183551 9.111757 -6.348204 -3.914310 1.377317 11.425973 -0.000003 -8.728668 10.710562 -0.044113 0.000001 0.000003 -0.000003 -0.000676 9.278122 -0.000000 -0.000001 -0.000000 8.207789 -6.751696 -1.599557 -5.122442 12.666392 -0.579317 50.668867 10.315791 4.773072 -31.697409 22.062607 -4.190599 -0.000003 -8.728670 10.710562 -3.123738 0.000005 0.000002 -0.000002 -0.000677 9.278139 0.000003 0.000000 -0.000000
